<?xml version="1.0" standalone="no"?>
<!DOCTYPE svg PUBLIC "-//W3C//DTD SVG 20010904//EN"
 "http://www.w3.org/TR/2001/REC-SVG-20010904/DTD/svg10.dtd">
<svg version="1.0" xmlns="http://www.w3.org/2000/svg"
 width="164.000000pt" height="62.000000pt" viewBox="0 0 164.000000 62.000000"
 preserveAspectRatio="xMidYMid meet">

<g transform="translate(0.000000,62.000000) scale(0.100000,-0.100000)"
fill="#000000" stroke="none">
<path d="M210 320 l0 -70 41 0 c24 0 38 4 34 10 -3 6 -17 10 -31 10 -23 0 -24
3 -24 60 0 33 -4 60 -10 60 -6 0 -10 -30 -10 -70z"/>
<path d="M310 320 c0 -40 4 -70 10 -70 6 0 10 30 10 70 0 40 -4 70 -10 70 -6
0 -10 -30 -10 -70z"/>
<path d="M370 371 c-14 -27 -5 -45 30 -58 32 -12 40 -37 14 -47 -8 -3 -24 -1
-35 4 -12 7 -19 7 -19 1 0 -14 36 -24 59 -16 25 7 36 41 21 59 -6 8 -22 17
-35 20 -28 7 -33 31 -10 40 8 3 22 2 32 -1 11 -4 14 -3 9 5 -11 19 -54 14 -66
-7z"/>
<path d="M504 355 c-7 -19 -21 -51 -28 -70 -9 -22 -11 -35 -5 -35 6 0 13 9 16
20 4 15 14 20 40 20 26 0 36 -5 40 -20 5 -17 23 -29 23 -15 0 17 -54 135 -62
135 -5 0 -16 -16 -24 -35z m46 -42 c0 -7 -11 -13 -24 -13 -24 0 -24 2 -14 32
10 29 12 30 25 13 7 -11 13 -25 13 -32z"/>
<path d="M670 370 c-41 -41 -12 -120 44 -120 42 0 56 11 56 41 0 24 -4 29 -22
28 -17 -1 -19 -2 -5 -6 24 -6 22 -40 -3 -48 -32 -10 -70 20 -70 55 0 38 36 64
76 55 22 -5 25 -4 14 4 -24 17 -68 13 -90 -9z"/>
<path d="M810 320 c0 -40 4 -70 10 -70 6 0 10 14 10 30 0 39 12 38 44 -2 14
-18 27 -30 31 -27 3 3 -4 17 -15 31 -17 23 -18 27 -5 38 35 29 10 70 -42 70
l-33 0 0 -70z m65 30 c0 -18 -6 -26 -22 -28 -20 -3 -23 1 -23 28 0 27 3 31 23
28 16 -2 22 -10 22 -28z"/>
<path d="M940 320 c0 -40 4 -70 10 -70 6 0 10 30 10 70 0 40 -4 70 -10 70 -6
0 -10 -30 -10 -70z"/>
<path d="M1002 319 c1 -62 2 -66 5 -21 2 28 8 52 12 52 4 0 22 -20 40 -45 47
-66 51 -65 49 17 l-1 73 -6 -59 -6 -60 -28 41 c-16 23 -37 49 -48 59 -19 17
-19 16 -17 -57z"/>
<path d="M1160 370 c-41 -41 -12 -120 44 -120 42 0 56 11 56 41 0 24 -4 29
-22 28 -17 -1 -19 -2 -5 -6 24 -6 22 -40 -3 -48 -32 -10 -70 20 -70 55 0 38
36 64 76 55 22 -5 25 -4 14 4 -24 17 -68 13 -90 -9z"/>
<path d="M1300 320 l0 -70 41 0 c24 0 38 4 34 10 -3 6 -17 10 -31 10 -23 0
-24 3 -24 60 0 33 -4 60 -10 60 -6 0 -10 -30 -10 -70z"/>
</g>
</svg>
